<mxfile host="65bd71144e">
    <diagram id="3dZUKVR7yfFkO374x5LT" name="페이지-1">
        <mxGraphModel dx="589" dy="509" grid="1" gridSize="10" guides="1" tooltips="1" connect="1" arrows="1" fold="1" page="1" pageScale="1" pageWidth="827" pageHeight="1169" background="#FFFFFF" math="0" shadow="0">
            <root>
                <mxCell id="0"/>
                <mxCell id="1" parent="0"/>
                <mxCell id="2" value="구인 공고 보기" style="rounded=0;whiteSpace=wrap;html=1;" vertex="1" parent="1">
                    <mxGeometry x="180" y="10" width="120" height="60" as="geometry"/>
                </mxCell>
                <mxCell id="3" value="태그 검색" style="rounded=0;whiteSpace=wrap;html=1;" vertex="1" parent="1">
                    <mxGeometry x="324" y="170" width="120" height="60" as="geometry"/>
                </mxCell>
                <mxCell id="4" value="구인 공고 즐겨찾기 등록 (버튼? 아무거나)" style="rounded=0;whiteSpace=wrap;html=1;" vertex="1" parent="1">
                    <mxGeometry x="30" y="90" width="120" height="60" as="geometry"/>
                </mxCell>
                <mxCell id="5" value="즐겨찾기된 공고 모아보는 영역" style="rounded=0;whiteSpace=wrap;html=1;" vertex="1" parent="1">
                    <mxGeometry x="30" y="170" width="120" height="60" as="geometry"/>
                </mxCell>
                <mxCell id="6" value="&lt;h3&gt;일반&lt;/h3&gt;" style="text;strokeColor=none;fillColor=none;html=1;fontSize=24;fontStyle=1;verticalAlign=middle;align=center;" vertex="1" parent="1">
                    <mxGeometry x="190" y="96" width="100" height="40" as="geometry"/>
                </mxCell>
                <mxCell id="7" value="무한 스크롤? 페이지? 원하시는 대로" style="rounded=0;whiteSpace=wrap;html=1;" vertex="1" parent="1">
                    <mxGeometry x="30" y="10" width="120" height="60" as="geometry"/>
                </mxCell>
                <mxCell id="8" value="공고 상세 보기&lt;br&gt;(새 페이지? 모달? 원하시는 대로)" style="rounded=0;whiteSpace=wrap;html=1;" vertex="1" parent="1">
                    <mxGeometry x="324" y="10" width="120" height="60" as="geometry"/>
                </mxCell>
                <mxCell id="9" value="왁물원 원문 바로가기 &lt;br&gt;(버튼? 아무거나)" style="rounded=0;whiteSpace=wrap;html=1;" vertex="1" parent="1">
                    <mxGeometry x="324" y="90" width="120" height="60" as="geometry"/>
                </mxCell>
                <mxCell id="10" value="크롤링 요청 버튼?&lt;br&gt;(왁물원 공고 불러오기)" style="rounded=0;whiteSpace=wrap;html=1;" vertex="1" parent="1">
                    <mxGeometry x="30" y="270" width="120" height="60" as="geometry"/>
                </mxCell>
                <mxCell id="12" value="관리자" style="text;strokeColor=none;fillColor=none;html=1;fontSize=24;fontStyle=1;verticalAlign=middle;align=center;" vertex="1" parent="1">
                    <mxGeometry x="190" y="360" width="100" height="40" as="geometry"/>
                </mxCell>
                <mxCell id="13" value="구인 공고 관리" style="rounded=0;whiteSpace=wrap;html=1;" vertex="1" parent="1">
                    <mxGeometry x="30" y="350" width="120" height="60" as="geometry"/>
                </mxCell>
                <mxCell id="14" value="구인 공고 수정&lt;br&gt;(공고에 대한 태그, 상세 수정)" style="rounded=0;whiteSpace=wrap;html=1;" vertex="1" parent="1">
                    <mxGeometry x="180" y="430" width="120" height="60" as="geometry"/>
                </mxCell>
                <mxCell id="15" value="태그(카테고리 X)&lt;br&gt;여러 태그 조합해서 검색&lt;br&gt;[ex. #게임 #디자이너]" style="rounded=0;whiteSpace=wrap;html=1;" vertex="1" parent="1">
                    <mxGeometry x="180" y="170" width="120" height="60" as="geometry"/>
                </mxCell>
                <mxCell id="16" value="태그 관리&lt;br&gt;(새로운 태그 등록, 삭제)" style="rounded=0;whiteSpace=wrap;html=1;" vertex="1" parent="1">
                    <mxGeometry x="324" y="350" width="120" height="60" as="geometry"/>
                </mxCell>
                <mxCell id="19" value="" style="endArrow=none;html=1;entryX=0.5;entryY=1;entryDx=0;entryDy=0;exitX=0.5;exitY=0;exitDx=0;exitDy=0;" edge="1" parent="1" source="13" target="10">
                    <mxGeometry width="50" height="50" relative="1" as="geometry">
                        <mxPoint x="220" y="370" as="sourcePoint"/>
                        <mxPoint x="270" y="320" as="targetPoint"/>
                    </mxGeometry>
                </mxCell>
                <mxCell id="20" value="" style="endArrow=none;html=1;entryX=0.5;entryY=1;entryDx=0;entryDy=0;exitX=0.5;exitY=0;exitDx=0;exitDy=0;" edge="1" parent="1" source="5" target="4">
                    <mxGeometry width="50" height="50" relative="1" as="geometry">
                        <mxPoint x="220" y="150" as="sourcePoint"/>
                        <mxPoint x="270" y="100" as="targetPoint"/>
                    </mxGeometry>
                </mxCell>
                <mxCell id="21" value="" style="endArrow=none;html=1;entryX=1;entryY=0.5;entryDx=0;entryDy=0;exitX=0;exitY=0.5;exitDx=0;exitDy=0;" edge="1" parent="1" source="8" target="2">
                    <mxGeometry width="50" height="50" relative="1" as="geometry">
                        <mxPoint x="220" y="150" as="sourcePoint"/>
                        <mxPoint x="270" y="100" as="targetPoint"/>
                    </mxGeometry>
                </mxCell>
                <mxCell id="22" value="" style="endArrow=none;html=1;entryX=0.5;entryY=1;entryDx=0;entryDy=0;exitX=0.5;exitY=0;exitDx=0;exitDy=0;" edge="1" parent="1" source="9" target="8">
                    <mxGeometry width="50" height="50" relative="1" as="geometry">
                        <mxPoint x="220" y="150" as="sourcePoint"/>
                        <mxPoint x="270" y="100" as="targetPoint"/>
                    </mxGeometry>
                </mxCell>
                <mxCell id="24" value="" style="endArrow=none;html=1;entryX=0;entryY=0.5;entryDx=0;entryDy=0;exitX=1;exitY=0.5;exitDx=0;exitDy=0;" edge="1" parent="1" source="15" target="3">
                    <mxGeometry width="50" height="50" relative="1" as="geometry">
                        <mxPoint x="210" y="160" as="sourcePoint"/>
                        <mxPoint x="260" y="110" as="targetPoint"/>
                    </mxGeometry>
                </mxCell>
                <mxCell id="25" value="" style="endArrow=none;html=1;entryX=1;entryY=0.5;entryDx=0;entryDy=0;exitX=0;exitY=0.5;exitDx=0;exitDy=0;" edge="1" parent="1" source="2" target="7">
                    <mxGeometry width="50" height="50" relative="1" as="geometry">
                        <mxPoint x="210" y="160" as="sourcePoint"/>
                        <mxPoint x="260" y="110" as="targetPoint"/>
                    </mxGeometry>
                </mxCell>
                <mxCell id="26" value="" style="endArrow=none;html=1;entryX=1;entryY=1;entryDx=0;entryDy=0;exitX=0;exitY=0;exitDx=0;exitDy=0;" edge="1" parent="1" source="14" target="13">
                    <mxGeometry width="50" height="50" relative="1" as="geometry">
                        <mxPoint x="210" y="370" as="sourcePoint"/>
                        <mxPoint x="260" y="320" as="targetPoint"/>
                    </mxGeometry>
                </mxCell>
                <mxCell id="28" value="" style="endArrow=none;dashed=1;html=1;startArrow=none;" edge="1" parent="1" source="30">
                    <mxGeometry width="50" height="50" relative="1" as="geometry">
                        <mxPoint y="250" as="sourcePoint"/>
                        <mxPoint x="480" y="250" as="targetPoint"/>
                    </mxGeometry>
                </mxCell>
                <mxCell id="29" value="로그인 서비스 없음" style="text;html=1;strokeColor=#b85450;fillColor=#f8cecc;align=center;verticalAlign=middle;whiteSpace=wrap;rounded=0;" vertex="1" parent="1">
                    <mxGeometry x="190" y="134" width="100" height="30" as="geometry"/>
                </mxCell>
                <mxCell id="31" value="" style="endArrow=none;dashed=1;html=1;" edge="1" parent="1" target="30">
                    <mxGeometry width="50" height="50" relative="1" as="geometry">
                        <mxPoint y="250" as="sourcePoint"/>
                        <mxPoint x="480" y="250" as="targetPoint"/>
                    </mxGeometry>
                </mxCell>
                <mxCell id="30" value="4 차원의 벽 (관리자 영역 존재 여부를 몰라야함)" style="shape=parallelogram;perimeter=parallelogramPerimeter;whiteSpace=wrap;html=1;fixedSize=1;fillColor=#d5e8d4;strokeColor=#82b366;" vertex="1" parent="1">
                    <mxGeometry x="105" y="240" width="270" height="20" as="geometry"/>
                </mxCell>
            </root>
        </mxGraphModel>
    </diagram>
</mxfile>